<?xml version="1.0" standalone="no"?>
<!DOCTYPE svg PUBLIC "-//W3C//DTD SVG 20010904//EN"
 "http://www.w3.org/TR/2001/REC-SVG-20010904/DTD/svg10.dtd">
<svg version="1.0" xmlns="http://www.w3.org/2000/svg"
 width="500.000000pt" height="500.000000pt" viewBox="0 0 500.000000 500.000000"
 preserveAspectRatio="xMidYMid meet">

<g transform="translate(0.000000,500.000000) scale(0.100000,-0.100000)"
fill="#000000" stroke="none">
<path d="M3190 4993 c-113 -4 -402 -22 -515 -33 -55 -5 -158 -14 -230 -20 -71
-6 -197 -20 -280 -30 -82 -11 -188 -25 -235 -31 -87 -12 -280 -42 -500 -79
-147 -25 -667 -138 -825 -180 -60 -16 -148 -39 -195 -50 -124 -32 -145 -48
-215 -176 -87 -158 -87 -159 -86 -252 0 -83 0 -83 -38 -125 -71 -77 -74 -101
-66 -442 4 -165 10 -331 13 -370 l7 -70 33 -3 c30 -3 32 -6 32 -40 0 -20 4
-93 10 -162 6 -69 15 -181 21 -250 17 -211 29 -351 39 -435 23 -199 23 -194
-4 -205 -13 -5 -27 -13 -30 -18 -8 -14 21 -267 64 -562 42 -282 45 -304 95
-600 30 -176 50 -222 113 -258 30 -17 41 -30 46 -55 3 -18 55 -129 114 -247
134 -267 136 -269 289 -283 159 -15 1169 -15 1393 1 284 19 513 40 693 62 209
26 246 31 297 40 30 5 168 28 305 50 405 65 686 122 988 200 20 6 55 15 77 20
22 6 58 15 80 20 22 6 57 14 78 19 20 6 59 15 86 22 62 16 116 68 135 129 24
79 12 887 -20 1385 -19 301 -50 687 -72 904 -13 124 -19 138 -61 155 -6 2 1
15 17 28 27 22 27 25 18 75 -10 51 -14 76 -50 363 -45 350 -162 1052 -200
1198 -5 20 -15 66 -22 101 -15 78 -60 147 -112 174 -33 17 -70 21 -235 28
-179 7 -869 9 -1052 2z m815 -14 c61 -5 180 -12 265 -16 122 -6 144 -8 105
-14 -27 -4 -129 -3 -225 1 -96 5 -308 10 -470 12 -292 3 -367 -1 -1045 -53
-118 -9 -450 -53 -670 -89 -91 -15 -315 -49 -360 -56 -22 -3 -130 -26 -240
-51 -110 -25 -220 -50 -245 -55 -51 -11 -107 -24 -165 -39 -22 -6 -58 -14 -80
-19 -22 -5 -60 -14 -85 -20 -25 -7 -62 -14 -83 -17 -20 -3 -40 -9 -43 -14 -8
-14 -86 -11 -82 3 4 10 269 83 433 119 28 6 66 15 85 19 19 4 58 13 85 18 28
6 104 22 169 36 510 109 1216 197 1831 227 127 6 232 13 234 15 9 8 479 2 586
-7z m380 -55 c28 -1 55 -3 61 -3 12 -1 19 -32 30 -130 l7 -54 -439 8 c-303 5
-484 4 -584 -4 -80 -6 -313 -23 -519 -36 -205 -14 -376 -27 -380 -30 -4 -2
-45 -9 -92 -15 -46 -6 -113 -16 -149 -21 -36 -5 -95 -14 -132 -19 -38 -6 -98
-14 -135 -20 -38 -5 -99 -14 -138 -20 -38 -6 -99 -15 -135 -20 -36 -5 -83 -14
-105 -19 -22 -5 -65 -14 -95 -21 -30 -7 -71 -16 -90 -20 -19 -4 -60 -13 -90
-20 -103 -22 -125 -27 -330 -74 -113 -26 -217 -50 -232 -55 -24 -8 -36 -1
-122 71 -81 68 -109 98 -93 98 2 0 57 13 123 29 130 32 250 60 579 136 33 8
98 23 145 34 47 11 198 36 335 56 138 20 277 41 310 46 81 11 187 28 260 39
104 17 338 35 760 60 98 6 182 13 185 17 4 5 932 -6 1065 -13z m143 -46 c39
-63 66 -168 43 -168 -4 0 -20 9 -33 20 -18 14 -29 36 -37 77 -6 32 -14 68 -17
81 -10 35 21 28 44 -10z m-255 -155 l226 -6 12 -29 c9 -21 9 -32 1 -40 -8 -8
-132 -8 -461 2 -349 10 -485 10 -608 1 -87 -6 -228 -16 -313 -21 -380 -24
-490 -33 -595 -50 -67 -10 -106 -16 -260 -39 -38 -6 -99 -15 -135 -20 -36 -6
-96 -15 -135 -20 -208 -30 -285 -46 -555 -112 -279 -67 -538 -131 -569 -140
-8 -2 -23 11 -33 29 -25 40 -14 57 40 65 20 4 55 11 77 16 22 5 63 14 90 21
28 6 66 15 85 20 36 8 84 19 180 40 55 12 106 24 170 39 19 5 60 14 90 21 30
7 73 16 95 21 45 11 41 10 480 74 176 26 347 51 380 56 82 12 382 35 785 59
96 6 176 13 179 16 7 6 517 5 774 -3z m303 -58 c25 -33 27 -65 5 -65 -11 0
-33 39 -45 78 -11 33 9 27 40 -13z m-289 -41 c191 -5 245 -9 254 -20 11 -14
17 -37 39 -151 6 -29 15 -79 21 -110 6 -32 15 -78 19 -103 5 -25 13 -72 19
-105 6 -33 15 -84 21 -112 23 -121 30 -166 54 -333 53 -366 76 -538 76 -572
l0 -34 -162 -18 c-340 -37 -437 -47 -608 -67 -47 -5 -128 -14 -180 -19 -52 -5
-135 -14 -185 -20 -49 -6 -133 -15 -185 -20 -200 -22 -268 -29 -365 -40 -55
-6 -140 -16 -190 -21 -180 -19 -262 -28 -360 -39 -55 -6 -140 -16 -190 -21
-49 -5 -128 -14 -175 -19 -47 -5 -130 -14 -185 -20 -55 -6 -138 -15 -185 -20
-47 -5 -130 -14 -185 -19 -55 -6 -140 -15 -190 -21 -49 -6 -133 -15 -185 -20
-252 -26 -287 -30 -321 -35 l-36 -6 -7 63 c-4 35 -11 133 -16 218 -5 85 -14
236 -20 335 -11 176 -28 880 -22 920 3 22 15 27 177 65 50 11 107 25 128 30
51 14 110 28 155 39 20 5 55 14 77 20 22 5 99 24 170 41 72 17 146 35 165 40
37 9 107 22 230 40 41 6 100 15 130 20 30 5 88 14 127 20 155 23 205 30 266
40 168 26 213 31 357 40 85 5 232 15 325 21 94 6 224 14 290 19 117 7 367 5
852 -6z m328 -66 c16 -72 135 -758 144 -838 7 -52 15 -108 17 -125 3 -16 10
-63 15 -102 5 -40 14 -108 19 -150 6 -43 14 -107 18 -143 4 -36 11 -70 15 -77
10 -16 -12 -28 -25 -15 -6 6 -15 46 -20 89 -9 77 -18 149 -38 293 -6 41 -15
107 -20 145 -30 220 -34 247 -80 495 -5 25 -13 72 -18 105 -6 33 -22 120 -36
194 -14 74 -23 138 -20 143 10 15 24 8 29 -14z m-4155 -26 c0 -5 -9 -27 -20
-50 -11 -22 -20 -48 -20 -57 0 -20 -28 -31 -42 -17 -15 15 7 74 39 106 26 26
43 33 43 18z m94 0 c8 -13 -68 -122 -86 -122 -23 0 -27 10 -17 46 16 56 84
107 103 76z m-250 -67 c-7 -19 -14 -43 -14 -53 0 -27 -28 -50 -36 -29 -5 15
18 80 37 104 21 25 28 13 13 -22z m371 -35 c115 -97 113 -95 83 -128 -14 -15
-36 -44 -50 -64 l-24 -37 -86 75 c-85 73 -87 76 -81 112 7 47 42 112 61 112 8
0 52 -32 97 -70z m-185 -55 c0 -8 -9 -15 -20 -15 -20 0 -26 11 -13 23 12 13
33 7 33 -8z m-75 -5 c4 -6 11 -207 15 -448 9 -448 23 -787 40 -972 5 -58 11
-154 12 -215 l3 -110 -25 0 c-24 0 -25 4 -32 70 -10 100 -28 388 -39 615 -12
241 -23 1035 -15 1055 6 17 32 20 41 5z m-131 -72 c3 -29 6 -183 6 -343 0
-308 21 -826 46 -1140 8 -104 19 -248 24 -320 6 -71 13 -149 16 -172 5 -35 3
-43 -9 -43 -9 0 -18 4 -21 8 -3 5 -10 73 -16 153 -7 79 -16 191 -20 249 -8 96
-22 339 -50 845 -11 210 -14 798 -3 808 14 15 20 5 27 -45z m200 33 c3 -5 8
-170 11 -368 6 -441 25 -863 54 -1218 8 -102 1 -134 -27 -116 -13 8 -18 62
-47 581 -19 321 -34 1095 -22 1116 9 16 23 18 31 5z m-297 -23 c-3 -8 -6 -5
-6 6 -1 11 2 17 5 13 3 -3 4 -12 1 -19z m418 -68 c75 -65 75 -65 75 -115 1
-209 24 -775 46 -1089 14 -208 22 -382 17 -386 -4 -4 -42 -10 -85 -13 l-76 -5
-7 34 c-14 79 -43 617 -55 1039 -12 453 -12 607 0 603 5 -1 44 -32 85 -68z
m215 40 c10 -24 10 -36 0 -60 -11 -27 -17 -30 -56 -30 -36 0 -44 3 -44 18 0
19 65 102 80 102 4 0 13 -13 20 -30z m-591 -975 c11 -233 24 -433 41 -630 36
-438 37 -418 -20 -413 l-25 3 -11 180 c-15 221 -35 619 -69 1339 -19 391 -19
396 34 465 l26 35 6 -380 c4 -208 12 -478 18 -599z m568 857 c10 -6 14 -69 18
-233 8 -304 24 -705 35 -869 23 -337 24 -400 8 -400 -9 0 -29 -3 -46 -6 -39
-8 -40 -6 -53 207 -6 96 -15 235 -20 309 -5 74 -11 196 -14 270 -3 74 -10 264
-16 421 -7 158 -9 292 -5 298 8 13 75 15 93 3z m-732 -224 c-4 -24 -11 -50
-15 -58 -7 -13 -10 -12 -16 3 -5 15 23 97 34 97 2 0 1 -19 -3 -42z m41 -44
c-8 -21 -26 -17 -26 6 0 10 6 32 13 47 l12 28 3 -34 c2 -18 1 -39 -2 -47z m8
-241 c16 -439 40 -851 68 -1148 7 -77 13 -169 13 -205 0 -36 3 -67 6 -70 4 -3
23 -144 44 -315 68 -573 71 -595 136 -980 20 -119 22 -168 7 -163 -7 3 -16 26
-20 54 -6 45 -15 104 -38 239 -5 28 -14 88 -20 135 -6 47 -20 144 -31 215 -11
72 -25 164 -30 205 -26 207 -40 336 -49 445 -5 66 -16 181 -24 255 -55 493
-114 1509 -90 1533 17 17 22 -16 28 -200z m-60 175 c10 -47 24 -663 16 -672
-20 -20 -27 11 -34 136 -12 254 -19 526 -13 542 9 23 26 20 31 -6z m4712 -799
c3 -6 2 -14 -2 -19 -5 -4 -180 -26 -389 -49 -209 -23 -499 -55 -645 -71 -146
-16 -434 -48 -640 -70 -206 -22 -413 -45 -460 -50 -47 -5 -213 -23 -370 -40
-157 -17 -325 -35 -375 -40 -168 -19 -359 -39 -605 -65 -135 -14 -279 -29
-320 -34 -41 -5 -78 -6 -82 -4 -8 4 -11 33 -3 33 5 0 735 76 865 90 248 27
474 51 565 60 55 6 136 15 180 20 44 5 125 14 180 20 207 22 833 90 915 99 47
6 193 22 325 37 132 14 366 41 520 59 329 38 332 38 341 24z m45 -99 c4 -19
12 -98 18 -175 10 -130 15 -191 41 -505 32 -375 59 -1322 39 -1346 -6 -7 -27
-16 -48 -20 -20 -3 -49 -10 -66 -14 -28 -8 -54 -15 -155 -40 -22 -5 -57 -14
-77 -20 -21 -5 -96 -23 -168 -40 -71 -17 -148 -36 -170 -41 -22 -6 -57 -15
-77 -20 -21 -5 -55 -13 -75 -18 -76 -20 -89 -22 -153 -32 -68 -10 -151 -23
-257 -39 -35 -6 -93 -15 -130 -20 -104 -16 -192 -30 -258 -40 -202 -32 -176
-29 -657 -60 -84 -5 -226 -14 -315 -19 -105 -7 -313 -7 -590 -1 -235 5 -442
10 -459 10 -54 0 -63 15 -84 145 -11 66 -24 146 -30 178 -24 136 -32 185 -71
422 -39 243 -50 317 -69 495 -5 47 -14 128 -20 180 -6 52 -15 131 -20 175 -5
44 -13 121 -19 170 -21 178 -30 279 -26 286 6 8 38 12 435 54 413 44 467 49
705 75 105 11 233 25 285 30 52 6 154 17 225 25 72 7 218 23 325 35 107 11
231 25 275 30 80 9 189 21 365 40 153 16 279 30 365 40 44 5 124 14 178 20 53
5 141 15 195 20 53 6 133 15 177 20 44 5 127 14 185 20 58 7 114 13 125 15 40
5 49 -1 56 -35z m53 8 c3 -13 8 -59 11 -103 3 -44 10 -129 15 -190 27 -306 39
-475 59 -880 15 -286 18 -799 6 -805 -12 -6 -20 147 -34 655 -10 344 -16 456
-51 865 -42 496 -41 480 -24 480 7 0 16 -10 18 -22z m-4111 -343 c9 -21 -2
-24 -87 -32 -66 -5 -76 -4 -76 10 0 17 18 24 80 30 70 7 78 7 83 -8z m97 5 c0
-10 -41 -30 -61 -30 -5 0 -9 9 -9 20 0 16 7 20 35 20 19 0 35 -5 35 -10z
m-284 -21 c10 -17 -13 -36 -27 -22 -12 12 -4 33 11 33 5 0 12 -5 16 -11z
m-120 -10 c7 -12 -15 -31 -28 -23 -4 3 -8 12 -8 20 0 17 26 19 36 3z m64 -4
c0 -8 -7 -15 -15 -15 -8 0 -15 7 -15 15 0 8 7 15 15 15 8 0 15 -7 15 -15z
m386 -125 c7 -52 17 -140 23 -195 26 -224 32 -283 41 -355 5 -41 14 -124 21
-185 6 -60 34 -247 61 -415 56 -347 65 -400 79 -490 6 -36 14 -87 19 -115 23
-134 23 -144 5 -151 -9 -4 -33 -7 -53 -8 l-36 -1 -23 150 c-42 272 -44 289
-54 350 -6 33 -15 89 -20 125 -18 110 -29 182 -39 245 -16 99 -38 269 -60 470
-16 141 -30 268 -40 355 -5 47 -14 126 -19 177 -5 50 -12 97 -16 103 -13 22
17 41 59 38 l40 -3 12 -95z m-132 68 c3 -13 17 -131 31 -263 52 -476 84 -752
99 -840 8 -49 29 -175 46 -280 17 -104 35 -215 40 -245 5 -30 19 -113 30 -185
11 -71 23 -143 25 -158 4 -22 -8 -51 -51 -123 -31 -52 -62 -94 -69 -94 -7 0
-15 19 -18 48 -4 26 -11 70 -17 97 -9 46 -15 79 -40 215 -4 25 -13 72 -20 105
-16 81 -28 147 -40 225 -6 36 -14 92 -20 125 -12 75 -38 246 -60 395 -10 67
-25 177 -40 310 -5 41 -14 118 -20 170 -24 202 -30 259 -40 374 -6 66 -7 123
-3 127 8 8 55 14 125 17 32 2 38 -2 42 -20z m-262 -45 c4 -23 12 -90 18 -150
6 -59 15 -144 20 -188 5 -44 14 -118 19 -165 32 -284 48 -400 96 -715 44 -287
94 -569 174 -980 10 -51 5 -65 -23 -65 -23 0 -23 0 -56 175 -6 28 -19 97 -30
155 -24 124 -36 189 -51 268 -6 31 -14 75 -19 97 -5 22 -14 74 -20 115 -6 41
-15 95 -20 120 -5 25 -13 79 -20 120 -6 41 -15 100 -20 130 -5 30 -14 94 -19
143 -6 48 -16 124 -21 170 -6 45 -20 172 -31 282 -11 110 -29 272 -39 360 -14
121 -16 162 -7 167 25 16 42 2 49 -39z m70 -8 c3 -28 7 -74 7 -102 1 -45 -2
-53 -17 -53 -15 0 -20 15 -30 96 -13 101 -10 117 16 112 12 -2 19 -18 24 -53z
m23 -237 c3 -29 19 -170 35 -313 28 -240 45 -371 70 -532 6 -35 15 -92 20
-128 6 -36 15 -94 20 -130 23 -148 32 -202 40 -245 5 -25 19 -97 30 -160 24
-130 55 -289 71 -369 8 -37 8 -56 0 -64 -17 -17 -39 10 -44 56 -5 39 -13 82
-37 202 -9 46 -16 83 -40 215 -4 25 -13 72 -20 105 -11 57 -21 122 -40 245
-16 101 -30 195 -40 260 -24 151 -37 241 -59 435 -6 50 -16 128 -21 175 -6 47
-15 123 -19 170 -5 47 -10 90 -11 95 -5 23 1 35 19 35 16 0 21 -9 26 -52z
m-205 -55 c12 -96 23 -187 40 -333 28 -251 47 -392 80 -590 5 -30 14 -88 20
-127 26 -180 31 -212 41 -268 6 -33 14 -78 19 -100 5 -22 13 -67 19 -100 6
-33 19 -105 30 -160 60 -311 57 -285 37 -285 -18 0 -19 4 -51 175 -14 77 -30
160 -35 185 -66 315 -143 808 -190 1220 -16 146 -34 298 -40 338 -14 100 -13
132 4 132 10 0 17 -25 26 -87z m-74 -18 c6 -49 16 -135 23 -190 43 -380 93
-749 131 -967 6 -32 15 -86 21 -120 17 -98 36 -202 79 -424 22 -111 7 -106
-53 16 -63 128 -65 133 -127 525 -22 138 -44 273 -50 300 -5 28 -12 75 -15
105 -3 30 -10 91 -15 135 -41 332 -80 677 -80 698 0 15 7 18 37 15 l37 -3 12
-90z m-132 -147 c3 -13 6 -38 6 -57 0 -18 4 -61 10 -95 5 -33 14 -101 20 -151
11 -84 15 -118 39 -277 6 -35 15 -97 21 -138 6 -41 24 -158 41 -260 46 -281
44 -260 26 -260 -21 0 -33 24 -41 85 -4 28 -11 75 -16 105 -6 30 -14 82 -19
115 -6 33 -15 89 -21 125 -5 36 -15 99 -21 140 -6 41 -15 104 -20 140 -9 61
-24 183 -49 395 -6 49 -13 99 -16 112 -3 12 -3 27 1 32 11 19 32 12 39 -11z
m4786 -1101 c0 -25 -26 -67 -41 -67 -13 0 -11 25 6 66 15 38 35 38 35 1z
m-4343 -44 c-3 -10 -5 -4 -5 12 0 17 2 24 5 18 2 -7 2 -21 0 -30z m4273 -2
c21 -41 5 -50 -140 -82 -25 -6 -65 -15 -90 -20 -25 -6 -61 -14 -80 -19 -19 -5
-55 -13 -80 -19 -80 -17 -144 -32 -180 -41 -19 -5 -57 -14 -85 -20 -27 -6 -66
-15 -85 -20 -19 -5 -48 -12 -65 -15 -16 -3 -48 -10 -70 -15 -22 -5 -71 -14
-110 -20 -38 -6 -99 -15 -135 -21 -36 -5 -94 -14 -130 -19 -36 -5 -96 -14
-135 -20 -38 -6 -99 -15 -135 -20 -36 -5 -96 -14 -135 -20 -135 -21 -221 -30
-385 -40 -91 -6 -295 -20 -455 -31 -256 -18 -342 -19 -738 -13 -477 7 -472 6
-447 54 12 22 14 22 189 16 298 -11 918 -10 1056 2 72 6 211 16 310 22 204 12
362 26 450 41 33 6 222 35 420 65 359 54 532 91 1085 234 80 21 148 38 152 39
4 0 12 -8 18 -18z m68 -140 c-3 -80 -9 -116 -21 -135 -10 -14 -21 -26 -26 -26
-5 0 -7 52 -5 116 3 92 7 121 20 135 32 35 37 22 32 -90z m-202 17 c-40 -57
-50 -85 -50 -148 -1 -36 3 -72 7 -81 6 -12 2 -18 -15 -21 -13 -3 -113 -26
-223 -52 -110 -26 -229 -54 -265 -62 -141 -33 -237 -55 -270 -64 -19 -5 -55
-12 -80 -15 -25 -4 -67 -11 -95 -16 -27 -6 -70 -13 -95 -16 -42 -5 -82 -23
-50 -23 44 0 404 70 520 100 48 13 88 21 133 27 20 3 40 9 43 14 3 5 17 9 31
9 15 0 40 4 57 9 17 5 56 15 86 21 100 21 154 33 227 52 40 10 82 18 93 18 11
0 20 5 20 11 0 5 5 7 10 4 14 -9 -14 -35 -36 -35 -10 0 -31 -4 -48 -10 -41
-13 -290 -75 -401 -100 -22 -5 -58 -13 -80 -19 -99 -25 -135 -33 -215 -46 -47
-7 -105 -18 -130 -24 -136 -30 -249 -42 -340 -35 -95 6 -116 -3 -37 -17 23 -4
-4 -5 -63 -2 -102 5 -130 -4 -53 -16 21 -4 -29 -7 -112 -7 -82 0 -188 -5 -235
-12 -83 -11 -174 -21 -410 -42 -63 -6 -155 -15 -204 -21 -54 -7 -304 -11 -644
-10 -503 1 -622 4 -622 18 0 2 13 15 29 29 48 40 74 109 68 178 l-5 59 401 -5
c373 -6 483 -3 847 22 74 5 207 13 295 19 155 10 242 19 390 41 39 6 99 15
135 20 36 5 94 14 130 19 36 5 99 14 140 20 41 6 104 15 140 21 36 5 99 15
140 21 41 6 111 19 155 29 44 11 211 49 370 85 160 37 292 69 294 71 2 2 11 4
19 4 12 0 12 -4 -2 -22z m102 -25 c3 -41 2 -42 -31 -48 -78 -15 -93 7 -43 60
46 48 70 44 74 -12z m-4500 25 c7 -7 12 -22 12 -35 0 -13 4 -23 9 -23 5 0 11
-9 14 -20 11 -41 -31 -12 -59 41 -20 40 -4 65 24 37z m52 -5 c0 -10 -20 -40
-20 -31 0 3 -3 13 -6 22 -4 11 -1 16 10 16 9 0 16 -3 16 -7z m4430 -104 c0
-15 -74 -89 -89 -89 -21 0 -3 76 22 92 18 12 67 9 67 -3z m44 -47 c9 -16 -6
-50 -24 -55 -28 -7 -31 3 -13 34 18 30 28 35 37 21z m-3710 -87 c20 -30 20
-49 2 -65 -12 -9 -24 -5 -60 22 -25 18 -45 36 -46 40 0 11 63 36 77 31 6 -3
19 -15 27 -28z m-99 -35 c10 -12 34 -30 52 -41 18 -11 33 -25 33 -29 0 -19
-154 -260 -166 -260 -15 0 -51 44 -59 73 -4 12 -11 32 -18 45 -9 19 -8 29 3
48 8 13 37 60 63 104 27 44 54 80 61 80 7 0 21 -9 31 -20z m193 -136 l3 -41
-52 -6 c-79 -10 -90 8 -39 63 22 23 36 31 57 28 25 -3 28 -7 31 -44z m-370
-91 c3 -19 -1 -23 -22 -23 -21 0 -26 5 -26 26 0 21 4 25 23 22 14 -2 23 -11
25 -25z m352 13 c0 -20 -69 -86 -89 -86 -29 0 -31 11 -11 50 21 41 27 45 71
48 19 2 29 -2 29 -12z m-548 -98 c13 -24 26 -52 31 -62 8 -20 8 -20 -14 0 -25
22 -49 66 -49 89 0 25 8 18 32 -27z m145 -9 c13 -24 28 -45 33 -47 15 -5 12
-32 -4 -32 -36 0 -105 97 -83 119 17 17 29 9 54 -40z m93 10 c41 -41 45 -64
15 -75 -22 -9 -60 20 -79 60 -32 68 4 76 64 15z m155 -1 c7 -26 5 -28 -22 -28
-41 0 -46 8 -21 42 22 32 33 28 43 -14z m2254 26 c2 -2 -22 -4 -55 -4 -41 0
-54 3 -44 10 13 8 88 3 99 -6z m-119 -14 c0 -5 -4 -10 -10 -10 -5 0 -81 -9
-167 -20 -87 -10 -248 -26 -358 -34 -110 -9 -261 -22 -335 -28 -191 -18 -1324
-18 -1342 -1 -31 32 5 34 423 22 532 -15 847 -7 1261 31 177 17 352 34 388 39
93 12 140 12 140 1z"/>
<path d="M2736 3930 c-47 -9 -86 -49 -86 -88 0 -15 7 -76 15 -137 8 -60 15
-111 15 -112 0 -1 14 -18 31 -38 35 -39 62 -43 159 -25 109 21 120 62 78 293
-8 39 -20 68 -38 88 -25 25 -34 29 -82 28 -29 -1 -71 -5 -92 -9z m161 -42 c23
-26 38 -83 48 -179 13 -127 -6 -149 -131 -149 -57 0 -65 3 -80 25 -15 24 -44
178 -44 241 0 44 21 66 71 74 85 14 114 11 136 -12z"/>
<path d="M2840 3840 c0 -5 5 -10 11 -10 5 0 7 5 4 10 -3 6 -8 10 -11 10 -2 0
-4 -4 -4 -10z"/>
<path d="M2788 3833 c7 -3 16 -2 19 1 4 3 -2 6 -13 5 -11 0 -14 -3 -6 -6z"/>
<path d="M2875 3810 c3 -5 8 -10 11 -10 2 0 4 5 4 10 0 6 -5 10 -11 10 -5 0
-7 -4 -4 -10z"/>
<path d="M2903 3685 c0 -33 2 -45 4 -27 2 18 2 45 0 60 -2 15 -4 0 -4 -33z"/>
<path d="M2770 3620 c0 -5 5 -10 11 -10 5 0 7 5 4 10 -3 6 -8 10 -11 10 -2 0
-4 -4 -4 -10z"/>
<path d="M2823 3613 c9 -2 23 -2 30 0 6 3 -1 5 -18 5 -16 0 -22 -2 -12 -5z"/>
</g>
</svg>
